<?xml version="1.0" encoding="UTF-8"?>
<svg version="1.1" xmlns="http://www.w3.org/2000/svg" width="512" height="512">
<path d="M0 0 C4.03451134 3.06435521 7.71864046 6.38690126 11.16796875 10.1015625 C11.7609375 10.70097656 12.35390625 11.30039062 12.96484375 11.91796875 C20.07294557 19.39800613 25.56435649 28.41912955 29.16796875 38.1015625 C36.52811808 36.63666905 43.45781627 34.42377803 50.54296875 31.96875 C52.9334155 31.15442448 55.32404618 30.34063871 57.71484375 29.52734375 C61.44935585 28.25153294 65.18229381 26.97161 68.91210938 25.68212891 C72.53499358 24.43205261 76.16339056 23.199232 79.79296875 21.96875 C80.89946777 21.58129608 82.0059668 21.19384216 83.14599609 20.79464722 C95.64011967 16.58889066 95.64011967 16.58889066 101.16796875 18.1015625 C104.02713892 20.31932851 105.06624306 21.49175067 105.66936541 25.10726929 C105.67001482 26.29438507 105.67066422 27.48150085 105.67133331 28.70458984 C105.67714708 29.36984932 105.68296084 30.0351088 105.68895078 30.72052765 C105.70360174 32.95988329 105.68964305 35.19815153 105.67590332 37.4375 C105.68051026 39.05502891 105.68686177 40.67255365 105.6948123 42.29006958 C105.71155739 46.74284002 105.70323586 51.19526888 105.69086742 55.64804077 C105.68184037 60.44702505 105.69577498 65.24594939 105.70678711 70.04492188 C105.72460204 79.44922522 105.72071913 88.8534011 105.70913655 98.2577095 C105.70011418 105.89870503 105.69887303 113.53966475 105.70323181 121.18066406 C105.70384474 122.26690882 105.70445768 123.35315357 105.70508918 124.47231483 C105.70636804 126.67878979 105.7076649 128.88526473 105.70897955 131.09173965 C105.72039406 151.79669265 105.70725798 172.50157488 105.68577808 193.20651627 C105.66790632 210.98406713 105.67101018 228.76151352 105.68945312 246.5390625 C105.71084446 267.16838299 105.71929534 287.79764141 105.70700407 308.42697144 C105.70572983 310.62546793 105.70447235 312.82396443 105.70323181 315.02246094 C105.70230616 316.64514358 105.70230616 316.64514358 105.70136181 318.30060768 C105.69790369 325.93512076 105.70374718 333.56959457 105.71315002 341.20410156 C105.72435211 350.5041739 105.72136775 359.80411114 105.70002705 369.10416794 C105.68949247 373.85199166 105.68543566 378.5995899 105.69862366 383.34741211 C105.71050373 387.68994595 105.70405797 392.03204434 105.68271345 396.37453842 C105.67822868 397.94917239 105.68055543 399.52384281 105.6902166 401.09845352 C105.70230947 403.23234359 105.68998087 405.36472504 105.67133331 407.49853516 C105.6706839 408.68565094 105.67003449 409.87276672 105.66936541 411.09585571 C105.0603687 414.74658915 104.06602836 415.87011222 101.16796875 418.1015625 C98.65574722 419.18418708 96.26038356 420.08904012 93.66967773 420.92626953 C92.53077308 421.310441 92.53077308 421.310441 91.36886024 421.7023735 C88.82501949 422.55754854 86.27591631 423.3957917 83.7265625 424.234375 C81.90109669 424.84447376 80.07602769 425.45576091 78.25132751 426.06814575 C74.30907286 427.38967712 70.3647724 428.70485968 66.41912842 430.01623535 C60.07078643 432.12948789 53.73396926 434.27597145 47.39892578 436.42871094 C37.41395216 439.8206252 27.42263265 443.19309555 17.42551613 446.54905319 C11.69724267 448.47245028 5.97113189 450.40184876 0.24926758 452.34423828 C-5.41514541 454.26692383 -11.08432687 456.17486202 -16.75717354 458.07251358 C-18.88586296 458.7873553 -21.01283097 459.50734652 -23.13792229 460.23281479 C-26.08212549 461.23689702 -29.03209378 462.22186739 -31.98413086 463.20263672 C-32.83754059 463.4985672 -33.69095032 463.79449768 -34.57022095 464.09939575 C-43.06929413 466.87946494 -50.50449104 466.97732906 -59.02587891 464.08203125 C-59.67107483 463.8674527 -60.31627075 463.65287415 -60.98101807 463.43179321 C-63.0744549 462.7316919 -65.16000644 462.01073546 -67.24609375 461.2890625 C-68.71109383 460.79450034 -70.17654644 460.30127682 -71.64242554 459.80932617 C-75.47081335 458.52056292 -79.29284246 457.21388837 -83.11376953 455.90319824 C-87.02524529 454.56507252 -90.94254884 453.24423914 -94.859375 451.921875 C-102.52268675 449.33185289 -110.17935835 446.72285127 -117.83203125 444.1015625 C-118.13002373 445.13937363 -118.13002373 445.13937363 -118.43403625 446.19815063 C-118.69855087 447.10294159 -118.96306549 448.00773254 -119.2355957 448.93994141 C-119.49613235 449.83806549 -119.75666901 450.73618958 -120.02510071 451.66152954 C-120.94212659 454.43447375 -122.0433009 456.3266492 -124.01953125 458.4765625 C-124.54933594 459.08242188 -125.07914063 459.68828125 -125.625 460.3125 C-132.26849875 465.69784943 -138.31354084 466.68801177 -146.7109375 466.61914062 C-148.30275345 466.62965454 -148.30275345 466.62965454 -149.92672729 466.64038086 C-153.4162656 466.65791037 -156.90498545 466.64635535 -160.39453125 466.6328125 C-162.83016108 466.63550884 -165.26578986 466.63939245 -167.70141602 466.64440918 C-172.79876992 466.65029743 -177.89584289 466.64176256 -182.99316406 466.62304688 C-189.51661035 466.60025825 -196.03939828 466.61338487 -202.56282043 466.63733673 C-207.59009737 466.6518126 -212.61721904 466.64718039 -217.64450073 466.63682556 C-220.04938841 466.63416325 -222.45429033 466.63741052 -224.85916138 466.64674377 C-228.22419407 466.65693835 -231.58817066 466.64136609 -234.953125 466.61914062 C-235.94037567 466.62723755 -236.92762634 466.63533447 -237.9447937 466.64367676 C-245.19185591 466.55530661 -250.3871926 464.89401577 -256.0390625 460.3125 C-256.56886719 459.70664062 -257.09867187 459.10078125 -257.64453125 458.4765625 C-258.18722656 457.88617188 -258.72992188 457.29578125 -259.2890625 456.6875 C-260.8422799 454.08438628 -261.58724033 451.83982418 -262.4284668 448.93994141 C-262.69298141 448.03515045 -262.95749603 447.1303595 -263.23002625 446.19815063 C-263.4286879 445.50627655 -263.62734955 444.81440247 -263.83203125 444.1015625 C-264.63889877 444.37718018 -265.4457663 444.65279785 -266.27708435 444.93676758 C-273.90737397 447.54047975 -281.54200556 450.13094841 -289.18171597 452.70689392 C-293.10857774 454.03145807 -297.03361684 455.36095713 -300.95483398 456.70214844 C-304.74394969 457.99794706 -308.53739739 459.2802391 -312.33412361 460.55355835 C-313.77688523 461.03999268 -315.21806325 461.53115201 -316.65752983 462.0272522 C-331.5624006 467.15726168 -331.5624006 467.15726168 -338.83203125 466.1015625 C-341.78672577 463.92901853 -342.72458525 462.74566566 -343.33342791 459.09585571 C-343.33407732 457.90873993 -343.33472672 456.72162415 -343.33539581 455.49853516 C-343.34120958 454.83327568 -343.34702334 454.1680162 -343.35301328 453.48259735 C-343.36766424 451.24324171 -343.35370555 449.00497347 -343.33996582 446.765625 C-343.34457276 445.14809609 -343.35092427 443.53057135 -343.3588748 441.91305542 C-343.37561989 437.46028498 -343.36729836 433.00785612 -343.35492992 428.55508423 C-343.34590287 423.75609995 -343.35983748 418.95717561 -343.37084961 414.15820312 C-343.38866454 404.75389978 -343.38478163 395.3497239 -343.37319905 385.9454155 C-343.36417668 378.30441997 -343.36293553 370.66346025 -343.36729431 363.02246094 C-343.36790724 361.93621618 -343.36852018 360.84997143 -343.36915168 359.73081017 C-343.37043054 357.52433521 -343.3717274 355.31786027 -343.37304205 353.11138535 C-343.38445656 332.40643235 -343.37132048 311.70155012 -343.34984058 290.99660873 C-343.33196882 273.21905787 -343.33507268 255.44161148 -343.35351562 237.6640625 C-343.37490696 217.03474201 -343.38335784 196.40548359 -343.37106657 175.77615356 C-343.36979233 173.57765707 -343.36853485 171.37916057 -343.36729431 169.18066406 C-343.36667721 168.09887564 -343.36606011 167.01708721 -343.36542431 165.90251732 C-343.36196619 158.26800424 -343.36780968 150.63353043 -343.37721252 142.99902344 C-343.38841461 133.6989511 -343.38543025 124.39901386 -343.36408955 115.09895706 C-343.35355497 110.35113334 -343.34949816 105.6035351 -343.36268616 100.85571289 C-343.37456623 96.51317905 -343.36812047 92.17108066 -343.34677595 87.82858658 C-343.34229118 86.25395261 -343.34461793 84.67928219 -343.3542791 83.10467148 C-343.36637197 80.97078141 -343.35404337 78.83839996 -343.33539581 76.70458984 C-343.3347464 75.51747406 -343.33409699 74.33035828 -343.33342791 73.10726929 C-342.7244312 69.45653585 -341.73009086 68.33301278 -338.83203125 66.1015625 C-336.31980972 65.01893792 -333.92444606 64.11408488 -331.33374023 63.27685547 C-330.57447046 63.02074116 -329.81520069 62.76462685 -329.03292274 62.5007515 C-326.48908199 61.64557646 -323.93997881 60.8073333 -321.390625 59.96875 C-319.56515919 59.35865124 -317.74009019 58.74736409 -315.91539001 58.13497925 C-311.97313536 56.81344788 -308.0288349 55.49826532 -304.08319092 54.18688965 C-297.73484893 52.07363711 -291.39803176 49.92715355 -285.06298828 47.77441406 C-275.07801466 44.3824998 -265.08669515 41.01002945 -255.08957863 37.65407181 C-249.36130517 35.73067472 -243.63519439 33.80127624 -237.91333008 31.85888672 C-232.24891709 29.93620117 -226.57973563 28.02826298 -220.90688896 26.13061142 C-218.77819954 25.4157697 -216.65123153 24.69577848 -214.52614021 23.97031021 C-211.58193701 22.96622798 -208.63196872 21.98125761 -205.67993164 21.00048828 C-204.82652191 20.7045578 -203.97311218 20.40862732 -203.09384155 20.10372925 C-194.9024624 17.42430759 -187.46239327 17.11273017 -179.23657227 19.9375 C-178.04576553 20.33791504 -176.8549588 20.73833008 -175.62806702 21.15087891 C-174.36395765 21.59258403 -173.09991602 22.03448307 -171.8359375 22.4765625 C-170.512695 22.92642037 -169.18894899 23.37479961 -167.86473083 23.82177734 C-164.40744866 24.99245361 -160.95632916 26.18027983 -157.50653076 27.37280273 C-151.96315705 29.28558146 -146.41051417 31.17129747 -140.85819817 33.05792236 C-138.92478529 33.71757304 -136.99392606 34.38428808 -135.06336975 35.05224609 C-133.89462814 35.45266113 -132.72588654 35.85307617 -131.52172852 36.265625 C-130.49265884 36.62092285 -129.46358917 36.9762207 -128.40333557 37.34228516 C-125.79934492 38.24316247 -125.79934492 38.24316247 -122.83203125 38.1015625 C-122.33574219 37.05097656 -121.83945313 36.00039062 -121.328125 34.91796875 C-117.50335536 26.96233418 -113.6454189 19.8146411 -107.83203125 13.1015625 C-107.19523438 12.2765625 -106.5584375 11.4515625 -105.90234375 10.6015625 C-80.33352851 -20.27398798 -31.38011888 -21.03550038 0 0 Z M-89.83203125 19.1015625 C-102.11465022 30.98613363 -109.7304656 45.32709116 -110.17553711 62.55151367 C-110.39460024 82.46248435 -105.01637419 97.05578641 -91.21484375 111.81640625 C-77.92363186 124.56289634 -62.31678284 129.6552334 -44.24584961 129.59130859 C-27.25506885 129.12218057 -13.60401989 122.27564085 -1.25 110.66796875 C12.30226938 96.28373453 16.79900213 80.19973167 16.5078125 60.87890625 C15.8384363 43.96674155 7.34099101 29.57051346 -4.83203125 18.1015625 C-30.27732058 -2.86321596 -65.15397899 -2.84630294 -89.83203125 19.1015625 Z M-326.83203125 80.1015625 C-326.83203125 200.8815625 -326.83203125 321.6615625 -326.83203125 446.1015625 C-318.31713889 443.81208327 -318.31713889 443.81208327 -309.93334961 441.21630859 C-308.91957748 440.8794101 -307.90580536 440.5425116 -306.86131287 440.19540405 C-305.80879837 439.84217072 -304.75628387 439.48893738 -303.671875 439.125 C-302.56018448 438.75428375 -301.44849396 438.3835675 -300.30311584 438.00161743 C-297.97577044 437.22483585 -295.64890683 436.44660936 -293.32250977 435.66699219 C-289.74936919 434.46980718 -286.17461971 433.27752608 -282.59960938 432.0859375 C-280.33193613 431.32840969 -278.06435463 430.57060715 -275.796875 429.8125 C-274.72614243 429.4552182 -273.65540985 429.0979364 -272.55223083 428.72982788 C-271.56682816 428.3992337 -270.58142548 428.06863953 -269.56616211 427.72802734 C-268.26357704 427.29192642 -268.26357704 427.29192642 -266.93467712 426.84701538 C-264.81333486 426.14331123 -264.81333486 426.14331123 -262.83203125 425.1015625 C-262.82838562 424.04191284 -262.82473999 422.98226318 -262.82098389 421.89050293 C-262.78398197 411.8858344 -262.72615244 401.88147218 -262.64812851 391.87703705 C-262.60868307 386.73409278 -262.57648014 381.59131898 -262.56103516 376.44824219 C-262.54584935 371.48134653 -262.51136942 366.51491963 -262.46372223 361.54823303 C-262.44892831 359.65694766 -262.44099138 357.76559536 -262.4401474 355.87425232 C-262.43776998 353.21709699 -262.41062887 350.56122898 -262.37792969 347.90429688 C-262.38547523 346.74119492 -262.38547523 346.74119492 -262.39317322 345.55459595 C-262.27164944 339.1379822 -260.30052001 333.96213784 -256.0859375 329.078125 C-255.52777344 328.63210938 -254.96960938 328.18609375 -254.39453125 327.7265625 C-253.56115234 327.03433594 -253.56115234 327.03433594 -252.7109375 326.328125 C-247.07586877 322.64951464 -241.82539015 322.80510337 -235.29370117 322.81103516 C-234.23292862 322.80431793 -233.17215607 322.79760071 -232.07923889 322.79067993 C-228.57361156 322.77168731 -225.06817558 322.767775 -221.5625 322.765625 C-219.12258323 322.75919773 -216.68266723 322.75246942 -214.24275208 322.74545288 C-209.12755548 322.73347678 -204.01242643 322.72977239 -198.8972168 322.73095703 C-192.35019168 322.73116018 -185.80360082 322.70386295 -179.25667858 322.66941261 C-174.21655802 322.64714892 -169.17654203 322.64311935 -164.13637733 322.64417648 C-161.72310198 322.64181955 -159.30982378 322.63299087 -156.89659691 322.61751175 C-153.51693912 322.5978644 -150.13821857 322.60368586 -146.75854492 322.61572266 C-145.76658112 322.60448364 -144.77461731 322.59324463 -143.75259399 322.58166504 C-136.62661833 322.64599068 -131.26481626 324.13929435 -125.80859375 328.84765625 C-125.36257812 329.40582031 -124.9165625 329.96398437 -124.45703125 330.5390625 C-123.99554688 331.09464844 -123.5340625 331.65023438 -123.05859375 332.22265625 C-119.83362206 337.1628199 -119.52904917 341.78953696 -119.51318359 347.5637207 C-119.49811516 348.8230265 -119.49811516 348.8230265 -119.48274231 350.10777283 C-119.45194176 352.87262307 -119.43488388 355.63737662 -119.41796875 358.40234375 C-119.39925459 360.32334727 -119.37968099 362.2443426 -119.35928345 364.16532898 C-119.30798251 369.21390955 -119.26834582 374.26251676 -119.23114014 379.31121826 C-119.19108776 384.46600932 -119.14000103 389.62068974 -119.08984375 394.77539062 C-118.99310857 404.88403683 -118.90869601 414.99274555 -118.83203125 425.1015625 C-106.46430246 429.34191871 -106.46430246 429.34191871 -94.08691406 433.55395508 C-78.43126066 438.8591127 -78.43126066 438.8591127 -70.9291687 441.59429932 C-68.23344229 442.57546258 -65.53034169 443.53516053 -62.82598877 444.49224854 C-61.00560936 445.14660065 -59.19664087 445.83242798 -57.38818359 446.51904297 C-56.27910645 446.90850098 -55.1700293 447.29795898 -54.02734375 447.69921875 C-53.08906738 448.04476807 -52.15079102 448.39031738 -51.18408203 448.74633789 C-2.36359792 453.91995802 42.59345412 419.62640071 89.16796875 404.1015625 C89.16796875 283.3215625 89.16796875 162.5415625 89.16796875 38.1015625 C81.76101393 40.12164109 74.50978258 42.22892258 67.25 44.67578125 C66.2667424 45.00447708 65.2834848 45.33317291 64.27043152 45.67182922 C61.17281467 46.70805855 58.07662606 47.74848137 54.98046875 48.7890625 C52.8627238 49.49832638 50.74488605 50.20731325 48.62695312 50.91601562 C43.47288268 52.64133469 38.31997368 54.37008595 33.16796875 56.1015625 C33.14585831 56.75411514 33.12374786 57.40666779 33.10096741 58.07899475 C32.99567066 61.0776703 32.8807123 64.07590362 32.765625 67.07421875 C32.73102173 68.10051392 32.69641846 69.12680908 32.6607666 70.1842041 C31.89612638 89.46159092 25.23123648 106.78272507 12.16796875 121.1015625 C11.65105469 121.71 11.13414062 122.3184375 10.6015625 122.9453125 C-2.27974724 137.1502656 -22.94704111 145.32061002 -41.7734375 146.48828125 C-65.99568033 147.33987197 -87.11915652 138.91538823 -104.95703125 122.4765625 C-119.4915196 107.19747946 -125.8240883 87.70544405 -126.45703125 66.9765625 C-126.49570313 65.9246875 -126.534375 64.8728125 -126.57421875 63.7890625 C-126.66739466 61.22672494 -126.75320507 58.66437471 -126.83203125 56.1015625 C-135.01049415 53.3599813 -143.1900244 50.62161561 -151.37094688 47.88738251 C-155.16938176 46.61775415 -158.96743542 45.34700897 -162.76464844 44.07373047 C-166.42716399 42.84566392 -170.09064057 41.62050629 -173.75481033 40.39738464 C-175.15463728 39.92954109 -176.55411094 39.46063916 -177.953228 38.99067688 C-179.90849465 38.33410276 -181.86496814 37.68125674 -183.82177734 37.02929688 C-184.93652435 36.65623413 -186.05127136 36.28317139 -187.19979858 35.89880371 C-233.92428344 21.74705893 -280.51675916 64.66313847 -326.83203125 80.1015625 Z M-244.83203125 341.1015625 C-247.38101329 345.68654924 -247.12120473 350.28754064 -247.10668945 355.38647461 C-247.11180038 356.31390976 -247.11691132 357.24134491 -247.12217712 358.19688416 C-247.13605853 361.25762413 -247.13511748 364.31813857 -247.1328125 367.37890625 C-247.13670011 369.50973087 -247.14103491 371.64055472 -247.14579773 373.77137756 C-247.15325674 378.23587558 -247.15297087 382.70029451 -247.14770508 387.16479492 C-247.14190967 392.88242173 -247.15884488 398.59972468 -247.18204975 404.31729794 C-247.19678983 408.71739084 -247.19765843 413.11740578 -247.19454002 417.517519 C-247.19505305 419.62541915 -247.20028738 421.73332369 -247.21035194 423.84119987 C-247.22270468 426.79009864 -247.21593153 429.738367 -247.2043457 432.68725586 C-247.21198944 433.55549988 -247.21963318 434.4237439 -247.22750854 435.31829834 C-247.18457071 440.26921829 -246.78152613 443.92004057 -243.83203125 448.1015625 C-239.53769988 450.86874546 -234.49180579 450.39029688 -229.54711914 450.3762207 C-228.15596642 450.3838871 -228.15596642 450.3838871 -226.73670959 450.39170837 C-223.67596962 450.40558978 -220.61545518 450.40464873 -217.5546875 450.40234375 C-215.42386288 450.40623136 -213.29303903 450.41056616 -211.16221619 450.41532898 C-206.69771817 450.42278799 -202.23329924 450.42250212 -197.76879883 450.41723633 C-192.05117202 450.41144092 -186.33386907 450.42837613 -180.61629581 450.451581 C-176.21620291 450.46632108 -171.81618797 450.46718968 -167.41607475 450.46407127 C-165.3081746 450.4645843 -163.20027006 450.46981863 -161.09239388 450.47988319 C-158.14349511 450.49223593 -155.19522675 450.48546278 -152.24633789 450.47387695 C-151.37809387 450.48152069 -150.50984985 450.48916443 -149.61529541 450.49703979 C-144.66437546 450.45410196 -141.01355318 450.05105738 -136.83203125 447.1015625 C-134.06484829 442.80723113 -134.54329687 437.76133704 -134.55737305 432.81665039 C-134.54970665 431.42549767 -134.54970665 431.42549767 -134.54188538 430.00624084 C-134.52800397 426.94550087 -134.52894502 423.88498643 -134.53125 420.82421875 C-134.52736239 418.69339413 -134.52302759 416.56257028 -134.51826477 414.43174744 C-134.51080576 409.96724942 -134.51109163 405.50283049 -134.51635742 401.03833008 C-134.52215283 395.32070327 -134.50521762 389.60340032 -134.48201275 383.88582706 C-134.46727267 379.48573416 -134.46640407 375.08571922 -134.46952248 370.685606 C-134.46900945 368.57770585 -134.46377512 366.46980131 -134.45371056 364.36192513 C-134.44135782 361.41302636 -134.44813097 358.464758 -134.4597168 355.51586914 C-134.45207306 354.64762512 -134.44442932 353.7793811 -134.43655396 352.88482666 C-134.47949179 347.93390671 -134.88253637 344.28308443 -137.83203125 340.1015625 C-141.38506907 338.02240775 -144.50805128 337.86280336 -148.5703125 337.90625 C-149.63701172 337.91269531 -150.70371094 337.91914063 -151.80273438 337.92578125 C-152.90552734 337.94253906 -154.00832031 337.95929688 -155.14453125 337.9765625 C-156.26666016 337.98558594 -157.38878906 337.99460937 -158.54492188 338.00390625 C-161.30751034 338.02741764 -164.06966057 338.06028095 -166.83203125 338.1015625 C-166.84083061 339.2190966 -166.84083061 339.2190966 -166.84980774 340.35920715 C-166.90769564 347.37809039 -166.97974938 354.39665147 -167.06774616 361.41521168 C-167.11248676 365.02361127 -167.1517343 368.63189701 -167.1784668 372.24047852 C-167.20446366 375.72255835 -167.2448392 379.20420089 -167.29521751 382.68601036 C-167.32003889 384.66181449 -167.32994064 386.6377877 -167.3396759 388.61372375 C-167.35947006 389.81474228 -167.37926422 391.0157608 -167.3996582 392.25317383 C-167.41076126 393.31240555 -167.42186432 394.37163727 -167.43330383 395.46296692 C-167.83203125 398.1015625 -167.83203125 398.1015625 -169.13639832 399.93583679 C-171.49749332 401.55905906 -173.70435222 401.62062822 -176.515625 401.54296875 C-179.33728583 401.00528296 -181.43491066 399.90473564 -183.95703125 398.5390625 C-187.73140734 396.50796419 -187.73140734 396.50796419 -191.95703125 396.0390625 C-194.38130186 396.93498859 -196.44340334 397.94451103 -198.70703125 399.1640625 C-203.00726067 401.4256035 -206.00653803 401.67407864 -210.83203125 401.1015625 C-212.53547668 399.93974304 -212.53547668 399.93974304 -213.83203125 398.1015625 C-214.23075867 395.46296692 -214.23075867 395.46296692 -214.2644043 392.25317383 C-214.28419846 391.0521553 -214.30399261 389.85113678 -214.3243866 388.61372375 C-214.33077652 387.31678085 -214.33716644 386.01983795 -214.34375 384.68359375 C-214.36059584 383.34264984 -214.37874596 382.00172174 -214.39814758 380.66081238 C-214.44566483 377.13454119 -214.47546258 373.60833406 -214.50158691 370.08184814 C-214.53138405 366.4821711 -214.57791719 362.88271482 -214.62304688 359.28320312 C-214.70909918 352.22278257 -214.77643569 345.16229386 -214.83203125 338.1015625 C-218.7068876 338.01404837 -222.58148768 337.96099815 -226.45703125 337.9140625 C-227.55144531 337.88892578 -228.64585937 337.86378906 -229.7734375 337.83789062 C-237.78534688 337.65713397 -237.78534688 337.65713397 -244.83203125 341.1015625 Z M-198.83203125 338.1015625 C-198.83203125 351.9615625 -198.83203125 365.8215625 -198.83203125 380.1015625 C-196.85203125 379.6065625 -196.85203125 379.6065625 -194.83203125 379.1015625 C-193.50097864 379.01317229 -192.16600529 378.97135166 -190.83203125 378.9765625 C-189.84203125 378.97269531 -189.84203125 378.97269531 -188.83203125 378.96875 C-186.83203125 379.1015625 -186.83203125 379.1015625 -182.83203125 380.1015625 C-182.83203125 366.2415625 -182.83203125 352.3815625 -182.83203125 338.1015625 C-188.11203125 338.1015625 -193.39203125 338.1015625 -198.83203125 338.1015625 Z " fill="#00A9F0" transform="translate(374.83203125,29.8984375)"/>
<path d="M0 0 C0.66 -0.0103125 1.32 -0.020625 2 -0.03125 C5.13178594 0.80063064 6.14526574 1.81508992 8 4.5 C8.58579882 7.80710061 8.60574604 11.08490471 8.625 14.4375 C8.41492715 22.30500377 8.41492715 22.30500377 11 29.5 C14.63339235 31.30741856 17.59461598 31.7501308 21.62548828 31.75537109 C22.73078888 31.76233002 23.83608948 31.76928894 24.97488403 31.77645874 C26.16137543 31.77546173 27.34786682 31.77446472 28.5703125 31.7734375 C31.10156685 31.79373554 33.63281681 31.81458649 36.1640625 31.8359375 C40.14001158 31.85847801 44.11578696 31.87498639 48.09179688 31.88085938 C51.9391191 31.89043459 55.78566579 31.9242831 59.6328125 31.9609375 C60.80715851 31.95589203 61.98150452 31.95084656 63.19143677 31.94564819 C75.01317882 32.08511872 84.37846799 35.269615 93 43.5 C101.80850953 52.72713177 104.62574301 62.35044324 104.47070312 74.86474609 C104.00249528 86.69197507 99.4516305 95.34107107 90.93359375 103.47265625 C78.90312685 113.60923927 65.95138931 113.0769155 51.0234375 113.0390625 C48.88594564 113.04898325 46.74846232 113.0609297 44.61099243 113.07479858 C39.00854836 113.10703135 33.40629963 113.11754114 27.80377197 113.12164307 C18.83149297 113.13042736 9.85937335 113.1660654 0.8872261 113.2138176 C-2.23301006 113.22633759 -5.3530411 113.22565071 -8.47329712 113.22354126 C-10.39837804 113.23012553 -12.32345757 113.23713257 -14.24853516 113.24462891 C-15.10591782 113.24050491 -15.96330048 113.23638092 -16.84666443 113.23213196 C-25.357833 113.28850849 -32.08329499 114.43899634 -39 119.5 C-39.66 119.5 -40.32 119.5 -41 119.5 C-41.68774405 120.82258472 -42.34711373 122.15986503 -43 123.5 C-43.53625 124.49 -44.0725 125.48 -44.625 126.5 C-47.01835943 132.20724172 -47.19782375 139.12235286 -45.1328125 144.9453125 C-44.10664691 147.03852743 -44.10664691 147.03852743 -42.97265625 148.87890625 C-42 150.5 -42 150.5 -41 153.5 C-39.30230766 154.60168984 -39.30230766 154.60168984 -37 155.5 C-35.329375 156.2734375 -35.329375 156.2734375 -33.625 157.0625 C-27.53299564 159.47829483 -21.77886998 159.64614774 -15.32348633 159.6418457 C-14.47221161 159.64532013 -13.62093689 159.64879456 -12.74386597 159.65237427 C-10.90238402 159.65970226 -9.06089341 159.66506332 -7.21940041 159.66866493 C-4.29639786 159.67586907 -1.37355944 159.69156574 1.5493927 159.71000671 C9.85785653 159.76228539 18.16622878 159.81041089 26.47485352 159.82592773 C31.56535731 159.83605535 36.65544434 159.86549881 41.74578285 159.90724754 C43.67646432 159.91949272 45.60720481 159.92469076 47.53792381 159.92244911 C62.1858999 159.90962838 73.89270986 160.89663229 85 171.5 C93.80850953 180.72713177 96.62574301 190.35044324 96.47070312 202.86474609 C96.00249528 214.69197507 91.4516305 223.34107107 82.93359375 231.47265625 C73.74906736 239.21131802 64.0904405 241.10229839 52.34008789 241.01757812 C51.12571045 241.0245874 49.91133301 241.03159668 48.66015625 241.03881836 C45.36496779 241.05329567 42.07043371 241.05006376 38.7752564 241.03730202 C35.31381681 241.02709609 31.85241744 241.03658709 28.39097595 241.04284668 C22.58861565 241.05009439 16.78646001 241.0406044 10.98413086 241.02148438 C4.28040793 240.99964893 -2.42282957 241.00682636 -9.12654108 241.02879 C-14.89836973 241.04694079 -20.67005235 241.04950614 -26.44190031 241.03903532 C-29.88261704 241.03280775 -33.32310534 241.03194564 -36.7638073 241.04518127 C-40.59134732 241.05888153 -44.41834185 241.03989558 -48.24584961 241.01757812 C-49.38302933 241.02567505 -50.52020905 241.03377197 -51.69184875 241.04211426 C-52.73321991 241.03083496 -53.77459106 241.01955566 -54.84751892 241.00793457 C-55.75133773 241.00642647 -56.65515654 241.00491837 -57.58636379 241.00336456 C-60.76496066 240.34046722 -61.97378997 238.97863441 -64 236.5 C-64.53125 234.5 -64.53125 234.5 -64.5 232.5 C-64.51546875 231.51 -64.51546875 231.51 -64.53125 230.5 C-63.6961868 227.35623265 -62.67354398 226.42278806 -60 224.5 C-56.35451653 223.88297643 -52.72994934 223.95728974 -49.0402832 223.98583984 C-47.36397072 223.97515221 -47.36397072 223.97515221 -45.65379333 223.96424866 C-41.95261099 223.94492229 -38.25199756 223.95325805 -34.55078125 223.9609375 C-31.97730167 223.95103326 -29.40382919 223.93909306 -26.83036804 223.92520142 C-20.73901095 223.89609032 -14.64783908 223.88324758 -8.55641955 223.87962496 C2.97873075 223.87259169 14.5137107 223.83707367 26.04874611 223.7861824 C29.8315135 223.77362082 33.61411238 223.7743539 37.39689636 223.77645874 C39.72903572 223.76987465 42.06117394 223.76286765 44.39331055 223.75537109 C45.43935455 223.75949509 46.48539856 223.76361908 47.56314087 223.76786804 C56.94920755 223.71645138 65.46577195 223.08034662 72.40625 216.08203125 C77.59801448 210.21111153 78.43523179 205.13370143 78.33203125 197.515625 C77.92777689 193.84404423 76.85735964 191.26226606 74.97265625 188.12109375 C74 186.5 74 186.5 73 183.5 C71.25132517 182.41568906 71.25132517 182.41568906 69 181.5 C67.6078125 180.7265625 67.6078125 180.7265625 66.1875 179.9375 C60.13101541 177.20614421 53.73703844 177.35378468 47.20996094 177.3581543 C46.35854019 177.35467987 45.50711945 177.35120544 44.62989807 177.34762573 C42.79116204 177.34030685 40.95241741 177.33494101 39.11367035 177.33133507 C36.19478858 177.32412091 33.27607021 177.30841764 30.35723877 177.28999329 C22.06158692 177.23775662 13.76602765 177.18958178 5.47021484 177.17407227 C0.38504186 177.16394514 -4.69971386 177.13450527 -9.78472137 177.09275246 C-11.71261172 177.08050914 -13.64056115 177.0753089 -15.56848907 177.07755089 C-30.20518678 177.09038428 -41.90183147 176.09465994 -53 165.5 C-61.80850953 156.27286823 -64.62574301 146.64955676 -64.47070312 134.13525391 C-64.00249528 122.30802493 -59.4516305 113.65892893 -50.93359375 105.52734375 C-38.90312685 95.39076073 -25.95138931 95.9230845 -11.0234375 95.9609375 C-8.88594564 95.95101675 -6.74846232 95.9390703 -4.61099243 95.92520142 C0.99145164 95.89296865 6.59370037 95.88245886 12.19622803 95.87835693 C21.16850703 95.86957264 30.14062665 95.8339346 39.1127739 95.7861824 C42.23301006 95.77366241 45.3530411 95.77434929 48.47329712 95.77645874 C50.39837804 95.76987447 52.32345757 95.76286743 54.24853516 95.75537109 C55.10591782 95.75949509 55.96330048 95.76361908 56.84666443 95.76786804 C65.76113841 95.70882008 73.85684532 94.68601431 80.40625 88.08203125 C85.59801448 82.21111153 86.43523179 77.13370143 86.33203125 69.515625 C85.92777689 65.84404423 84.85735964 63.26226606 82.97265625 60.12109375 C82 58.5 82 58.5 81 55.5 C79.25132517 54.41568906 79.25132517 54.41568906 77 53.5 C75.6078125 52.7265625 75.6078125 52.7265625 74.1875 51.9375 C67.06579054 48.72574868 59.23651381 49.35219172 51.56640625 49.32421875 C49.11913195 49.30102855 46.67186628 49.27691155 44.22460938 49.25195312 C40.38885629 49.21682133 36.55342391 49.1874683 32.7175293 49.17407227 C29.00010062 49.15857006 25.28359098 49.11835831 21.56640625 49.07421875 C20.42659805 49.07612717 19.28678986 49.07803558 18.11244202 49.08000183 C10.27618189 48.96011865 4.81617252 47.84413724 -1.2421875 42.53515625 C-1.78101563 41.88417969 -2.31984375 41.23320312 -2.875 40.5625 C-3.70644531 39.58990234 -3.70644531 39.58990234 -4.5546875 38.59765625 C-8.98091702 32.17364205 -8.36710807 25.45455904 -8.375 17.9375 C-8.39949219 16.70580078 -8.42398438 15.47410156 -8.44921875 14.20507812 C-8.45308594 13.02236328 -8.45695312 11.83964844 -8.4609375 10.62109375 C-8.46915527 9.5427124 -8.47737305 8.46433105 -8.48583984 7.35327148 C-7.67861288 2.61253703 -4.85117424 -0.0757996 0 0 Z " fill="#009FF0" transform="translate(328,183.5)"/>
<path d="M0 0 C2.5 1.5 2.5 1.5 4 4 C5.17976972 12.18102606 1.40645831 18.4450311 -2.125 25.625 C-2.76319912 26.9520105 -3.39972505 28.27982684 -4.03466797 29.60839844 C-5.35517967 32.36808334 -6.68280526 35.12416923 -8.015625 37.87792969 C-10.82016759 43.6860227 -13.53806937 49.53415412 -16.25610352 55.38308716 C-17.12295005 57.24559547 -17.99351695 59.10631975 -18.86523438 60.96655273 C-21.7576494 67.1441126 -24.61188673 73.33602407 -27.40625 79.55859375 C-27.94878418 80.7590332 -28.49131836 81.95947266 -29.05029297 83.19628906 C-30.07415408 85.4662447 -31.08929936 87.74015878 -32.09423828 90.01855469 C-32.77848877 91.5311084 -32.77848877 91.5311084 -33.4765625 93.07421875 C-33.86924316 93.95682373 -34.26192383 94.83942871 -34.66650391 95.7487793 C-36.14923084 98.25193291 -37.54085345 99.47592729 -40 101 C-42 101.43359375 -42 101.43359375 -44 101.4375 C-44.66 101.45683594 -45.32 101.47617188 -46 101.49609375 C-48.95488826 100.76314295 -50.04860943 99.32014425 -52 97 C-53.21337891 93.85546875 -53.21337891 93.85546875 -54.2265625 90.1875 C-54.62207361 88.85108072 -55.01926174 87.5151568 -55.41796875 86.1796875 C-56.02783672 84.090534 -56.62489983 82.00037054 -57.19287109 79.89941406 C-59.17530713 71.70522359 -59.17530713 71.70522359 -64.18310547 65.29492188 C-66.778681 64.231069 -69.25874817 63.58653243 -72 63 C-73.81484465 62.42155303 -75.6248174 61.82760623 -77.4296875 61.21875 C-80.17332958 60.3475648 -82.91911872 59.48650559 -85.671875 58.64453125 C-94.31982621 55.87468021 -94.31982621 55.87468021 -97 52 C-97.77403846 46.58173077 -97.77403846 46.58173077 -97 44 C-93.65883369 40.23374508 -90.5719867 38.01182102 -86.00390625 35.94140625 C-84.82070801 35.39782471 -83.63750977 34.85424316 -82.41845703 34.29418945 C-81.13318965 33.71684469 -79.8478692 33.13961805 -78.5625 32.5625 C-77.22195998 31.9506304 -75.88196224 31.33757148 -74.54248047 30.72338867 C-71.7567643 29.44711861 -68.96878003 28.1760022 -66.17919922 26.90820312 C-60.26506972 24.21480549 -54.38435045 21.45049605 -48.50100708 18.69070435 C-46.01219723 17.52563219 -43.51991359 16.36809936 -41.0276947 15.21034241 C-35.6901463 12.73075179 -30.36797913 10.22328942 -25.0625 7.67578125 C-22.91670418 6.65877502 -20.77087277 5.64184386 -18.625 4.625 C-17.18181396 3.91887573 -17.18181396 3.91887573 -15.70947266 3.19848633 C-10.16203971 0.59128205 -6.14192314 -0.67327569 0 0 Z M-31.9140625 30.140625 C-32.60253265 30.46407898 -33.29100281 30.78753296 -34.00033569 31.12078857 C-36.21025992 32.16028637 -38.41758266 33.20519105 -40.625 34.25 C-42.0896886 34.93913194 -43.55453066 35.62793782 -45.01953125 36.31640625 C-46.44284852 36.98668157 -47.86602978 37.65724578 -49.2890625 38.328125 C-49.94145905 38.63558655 -50.59385559 38.9430481 -51.26602173 39.25982666 C-55.87686275 41.44304138 -60.44293778 43.70660546 -65 46 C-62.16515524 48.13387457 -62.16515524 48.13387457 -59.07421875 48.7265625 C-50.28676679 51.05772046 -50.28676679 51.05772046 -47.80859375 54.79833984 C-45.63569432 59.35397263 -44.25507223 64.12298417 -43 69 C-39.57289319 66.21572372 -38.05989149 62.35401415 -36.2421875 58.4453125 C-35.8936673 57.70675018 -35.54514709 56.96818787 -35.18606567 56.20724487 C-34.45177051 54.64697316 -33.72071168 53.0851748 -32.99267578 51.52197266 C-31.88041346 49.13660972 -30.75547264 46.75754119 -29.62890625 44.37890625 C-28.91589805 42.85973551 -28.20363362 41.34021541 -27.4921875 39.8203125 C-27.15677948 39.11182159 -26.82137146 38.40333069 -26.47579956 37.67337036 C-24.83945079 34.13987792 -23.54181724 30.86784266 -23 27 C-26.26733427 27 -29.00873927 28.76102905 -31.9140625 30.140625 Z " fill="#00D3F0" transform="translate(367,53)"/>
<path d="M0 0 C0.66 -0.0103125 1.32 -0.020625 2 -0.03125 C5.04782397 0.77832824 6.15682414 1.94542293 8 4.5 C8.40100915 7.33065284 8.56122899 9.68346659 8.5 12.5 C8.51546875 13.2115625 8.5309375 13.923125 8.546875 14.65625 C8.52115187 18.10314984 8.25431936 20.14752229 6.21875 22.96875 C3.88020812 24.58267327 2.80290722 25.04379543 0 25 C-0.66 25.0103125 -1.32 25.020625 -2 25.03125 C-5.04782397 24.22167176 -6.15682414 23.05457707 -8 20.5 C-8.40100915 17.66934716 -8.56122899 15.31653341 -8.5 12.5 C-8.51546875 11.7884375 -8.5309375 11.076875 -8.546875 10.34375 C-8.52115187 6.89685016 -8.25431936 4.85247771 -6.21875 2.03125 C-3.88020812 0.41732673 -2.80290722 -0.04379543 0 0 Z " fill="#009EF0" transform="translate(184,311.5)"/>
<path d="M0 0 C0.66 -0.0103125 1.32 -0.020625 2 -0.03125 C5.04782397 0.77832824 6.15682414 1.94542293 8 4.5 C8.40100915 7.33065284 8.56122899 9.68346659 8.5 12.5 C8.51546875 13.2115625 8.5309375 13.923125 8.546875 14.65625 C8.52115187 18.10314984 8.25431936 20.14752229 6.21875 22.96875 C3.88020812 24.58267327 2.80290722 25.04379543 0 25 C-0.66 25.0103125 -1.32 25.020625 -2 25.03125 C-5.04782397 24.22167176 -6.15682414 23.05457707 -8 20.5 C-8.40100915 17.66934716 -8.56122899 15.31653341 -8.5 12.5 C-8.51546875 11.7884375 -8.5309375 11.076875 -8.546875 10.34375 C-8.52115187 6.89685016 -8.25431936 4.85247771 -6.21875 2.03125 C-3.88020812 0.41732673 -2.80290722 -0.04379543 0 0 Z " fill="#00A7F0" transform="translate(184,271.5)"/>
<path d="M0 0 C0.66 -0.0103125 1.32 -0.020625 2 -0.03125 C5.04782397 0.77832824 6.15682414 1.94542293 8 4.5 C8.40100915 7.33065284 8.56122899 9.68346659 8.5 12.5 C8.51546875 13.2115625 8.5309375 13.923125 8.546875 14.65625 C8.52115187 18.10314984 8.25431936 20.14752229 6.21875 22.96875 C3.88020812 24.58267327 2.80290722 25.04379543 0 25 C-0.66 25.0103125 -1.32 25.020625 -2 25.03125 C-5.04782397 24.22167176 -6.15682414 23.05457707 -8 20.5 C-8.40100915 17.66934716 -8.56122899 15.31653341 -8.5 12.5 C-8.51546875 11.7884375 -8.5309375 11.076875 -8.546875 10.34375 C-8.52115187 6.89685016 -8.25431936 4.85247771 -6.21875 2.03125 C-3.88020812 0.41732673 -2.80290722 -0.04379543 0 0 Z " fill="#00B1F0" transform="translate(184,231.5)"/>
<path d="M0 0 C0.66 -0.0103125 1.32 -0.020625 2 -0.03125 C5.04782397 0.77832824 6.15682414 1.94542293 8 4.5 C8.40100915 7.33065284 8.56122899 9.68346659 8.5 12.5 C8.51546875 13.2115625 8.5309375 13.923125 8.546875 14.65625 C8.52115187 18.10314984 8.25431936 20.14752229 6.21875 22.96875 C3.88020812 24.58267327 2.80290722 25.04379543 0 25 C-0.66 25.0103125 -1.32 25.020625 -2 25.03125 C-5.04782397 24.22167176 -6.15682414 23.05457707 -8 20.5 C-8.40100915 17.66934716 -8.56122899 15.31653341 -8.5 12.5 C-8.51546875 11.7884375 -8.5309375 11.076875 -8.546875 10.34375 C-8.52115187 6.89685016 -8.25431936 4.85247771 -6.21875 2.03125 C-3.88020812 0.41732673 -2.80290722 -0.04379543 0 0 Z " fill="#00BAF0" transform="translate(184,191.5)"/>
<path d="M0 0 C0.66 -0.0103125 1.32 -0.020625 2 -0.03125 C5.04782397 0.77832824 6.15682414 1.94542293 8 4.5 C8.40100915 7.33065284 8.56122899 9.68346659 8.5 12.5 C8.51546875 13.2115625 8.5309375 13.923125 8.546875 14.65625 C8.52115187 18.10314984 8.25431936 20.14752229 6.21875 22.96875 C3.88020812 24.58267327 2.80290722 25.04379543 0 25 C-0.66 25.0103125 -1.32 25.020625 -2 25.03125 C-5.04782397 24.22167176 -6.15682414 23.05457707 -8 20.5 C-8.40100915 17.66934716 -8.56122899 15.31653341 -8.5 12.5 C-8.51546875 11.7884375 -8.5309375 11.076875 -8.546875 10.34375 C-8.52115187 6.89685016 -8.25431936 4.85247771 -6.21875 2.03125 C-3.88020812 0.41732673 -2.80290722 -0.04379543 0 0 Z " fill="#00C4F0" transform="translate(184,151.5)"/>
<path d="M0 0 C0.66 -0.0103125 1.32 -0.020625 2 -0.03125 C5.04782397 0.77832824 6.15682414 1.94542293 8 4.5 C8.40100915 7.33065284 8.56122899 9.68346659 8.5 12.5 C8.51546875 13.2115625 8.5309375 13.923125 8.546875 14.65625 C8.52115187 18.10314984 8.25431936 20.14752229 6.21875 22.96875 C3.88020812 24.58267327 2.80290722 25.04379543 0 25 C-0.66 25.0103125 -1.32 25.020625 -2 25.03125 C-5.04782397 24.22167176 -6.15682414 23.05457707 -8 20.5 C-8.40100915 17.66934716 -8.56122899 15.31653341 -8.5 12.5 C-8.51546875 11.7884375 -8.5309375 11.076875 -8.546875 10.34375 C-8.52115187 6.89685016 -8.25431936 4.85247771 -6.21875 2.03125 C-3.88020812 0.41732673 -2.80290722 -0.04379543 0 0 Z " fill="#00CDF0" transform="translate(184,111.5)"/>
<path d="M0 0 C0.66 -0.0103125 1.32 -0.020625 2 -0.03125 C5.04782397 0.77832824 6.15682414 1.94542293 8 4.5 C8.40100915 7.33065284 8.56122899 9.68346659 8.5 12.5 C8.51546875 13.2115625 8.5309375 13.923125 8.546875 14.65625 C8.52115187 18.10314984 8.25431936 20.14752229 6.21875 22.96875 C3.88020812 24.58267327 2.80290722 25.04379543 0 25 C-0.66 25.0103125 -1.32 25.020625 -2 25.03125 C-5.04782397 24.22167176 -6.15682414 23.05457707 -8 20.5 C-8.40100915 17.66934716 -8.56122899 15.31653341 -8.5 12.5 C-8.51546875 11.7884375 -8.5309375 11.076875 -8.546875 10.34375 C-8.52115187 6.89685016 -8.25431936 4.85247771 -6.21875 2.03125 C-3.88020812 0.41732673 -2.80290722 -0.04379543 0 0 Z " fill="#00D7F0" transform="translate(184,71.5)"/>
</svg>
