<?xml version="1.0" encoding="UTF-8"?>
<svg version="1.1" xmlns="http://www.w3.org/2000/svg" width="512" height="512">
<path d="M0 0 C1.14806625 -0.00630432 2.29613251 -0.01260864 3.47898865 -0.019104 C4.71963577 -0.01505554 5.9602829 -0.01100708 7.23852539 -0.00683594 C9.14898399 -0.00970612 9.14898399 -0.00970612 11.09803772 -0.01263428 C13.79401179 -0.01399651 16.48962437 -0.01129944 19.18554688 -0.00195312 C22.63674216 0.00942991 26.08762597 0.00288741 29.53880978 -0.00909805 C32.83455938 -0.01807559 36.13027171 -0.0117836 39.42602539 -0.00683594 C41.28395973 -0.01290863 41.28395973 -0.01290863 43.1794281 -0.019104 C44.33064651 -0.01279968 45.48186493 -0.00649536 46.66796875 0 C48.18661781 0.00238678 48.18661781 0.00238678 49.73594666 0.00482178 C52.47107001 0.26569335 54.09061819 0.80054733 56.39868164 2.25878906 C59.06586386 5.78148255 58.62740262 9.78814315 58.52368164 14.00878906 C58.5146582 14.70617188 58.50563477 15.40355469 58.49633789 16.12207031 C58.47288052 17.83445864 58.43701268 19.5466691 58.39868164 21.25878906 C60.13154419 21.23522339 60.13154419 21.23522339 61.89941406 21.21118164 C66.19507851 21.15678537 70.49071264 21.12240373 74.78662109 21.09399414 C76.64409509 21.0789296 78.50153365 21.05847397 80.35888672 21.0324707 C83.03239703 20.99598448 85.70543609 20.97903937 88.37915039 20.96582031 C89.62005684 20.94259453 89.62005684 20.94259453 90.8860321 20.91889954 C95.51322901 20.91755606 98.76240439 21.07981579 102.39868164 24.25878906 C105.41802984 28.80411989 105.85420738 32.93067523 105.83227539 38.25488281 C105.83751724 39.00665298 105.84275909 39.75842316 105.84815979 40.53297424 C105.8545538 42.11547618 105.85327708 43.69802582 105.84472656 45.28051758 C105.83621713 47.68625497 105.86500921 50.08961388 105.89672852 52.49511719 C105.89834097 54.04003836 105.89776215 55.58496369 105.89477539 57.12988281 C105.91162636 58.19582924 105.91162636 58.19582924 105.92881775 59.28330994 C105.85342906 64.75471554 104.32565532 67.81116817 101.39868164 72.25878906 C100.73868164 72.25878906 100.07868164 72.25878906 99.39868164 72.25878906 C99.40756409 73.00159119 99.41644653 73.74439331 99.42559814 74.50970459 C99.50577908 81.51328812 99.56666351 88.51671241 99.60593033 95.52062607 C99.62679677 99.12137192 99.65509585 102.72173822 99.70043945 106.32226562 C99.74393289 109.7976682 99.76782585 113.27270594 99.77819061 116.74835968 C99.78916779 118.7182469 99.82038864 120.68798754 99.85186768 122.65765381 C99.8521698 123.8585968 99.85247192 125.05953979 99.8527832 126.296875 C99.86166565 127.35388611 99.8705481 128.41089722 99.87969971 129.49993896 C99.26152904 133.04541952 98.18996041 134.03321515 95.39868164 136.25878906 C92.71840763 136.76494694 92.71840763 136.76494694 89.59840393 136.77345276 C87.82140106 136.79253944 87.82140106 136.79253944 86.00849915 136.81201172 C84.71228134 136.80548584 83.41606354 136.79895996 82.08056641 136.79223633 C80.69893472 136.79929518 79.31731076 136.80804007 77.93569946 136.81834412 C74.18559357 136.84085293 70.43590943 136.83789501 66.68576169 136.82902265 C63.55448952 136.82391349 60.42329666 136.83120476 57.29203266 136.83849472 C49.90457891 136.85549866 42.51733169 136.85192326 35.12988281 136.83520508 C27.5100356 136.81828387 19.89076124 136.8341167 12.2709766 136.86642796 C5.72730444 136.89312421 -0.8161894 136.9003998 -7.35991055 136.89191288 C-11.26750434 136.88698358 -15.17475346 136.88919891 -19.082304 136.90970039 C-22.75727534 136.92805839 -26.43142287 136.92209873 -30.10634995 136.89750099 C-32.09611027 136.89010699 -34.08591443 136.9073479 -36.0756073 136.92532349 C-44.727213 136.83313136 -44.727213 136.83313136 -48.90454102 134.08836365 C-50.83841337 130.86340542 -51.21704326 129.09532204 -51.19726562 125.35449219 C-51.20399796 124.18978394 -51.21073029 123.02507568 -51.21766663 121.82507324 C-51.19294533 119.95148132 -51.19294533 119.95148132 -51.16772461 118.04003906 C-51.17633345 116.06814634 -51.1849637 114.09625343 -51.19486141 112.12436676 C-51.20516894 108.66908847 -51.18231429 105.2140107 -51.16381836 101.75878906 C-51.14558376 97.63525128 -51.13507596 93.51210138 -51.15354919 89.3885498 C-51.16284728 86.82319933 -51.1536062 84.2577004 -51.12391663 81.69250488 C-51.1274968 80.52779663 -51.13107697 79.36308838 -51.13476562 78.16308594 C-51.12856705 77.14114136 -51.12236847 76.11919678 -51.11598206 75.06628418 C-51.72569812 71.53929707 -53.32730264 69.96405855 -55.60131836 67.25878906 C-56.11598206 65.21730042 -56.11598206 65.21730042 -56.13476562 63.20629883 C-56.15060196 62.44523331 -56.16643829 61.68416779 -56.18275452 60.90003967 C-56.17779465 60.09159103 -56.17283478 59.2831424 -56.16772461 58.45019531 C-56.17392319 57.60585434 -56.18012177 56.76151337 -56.18650818 55.8915863 C-56.19359376 54.11059722 -56.19045435 52.32954173 -56.17773438 50.54858398 C-56.1638776 47.83289856 -56.19794297 45.12066759 -56.23608398 42.40527344 C-56.23703538 40.67024656 -56.23517528 38.93521539 -56.23022461 37.20019531 C-56.24348282 36.3937709 -56.25674103 35.5873465 -56.270401 34.75648499 C-56.17458645 28.91410681 -54.80924972 26.33322359 -50.60131836 22.25878906 C-47.37528291 20.64577134 -43.85421798 21.13825307 -40.31225586 21.16113281 C-39.08462021 21.16325523 -39.08462021 21.16325523 -37.83218384 21.16542053 C-35.21352511 21.17102617 -32.59495132 21.18357958 -29.97631836 21.19628906 C-28.20288209 21.20130334 -26.42944449 21.20586637 -24.65600586 21.20996094 C-20.30441054 21.22099742 -15.95287886 21.23826581 -11.60131836 21.25878906 C-11.63612305 20.30617188 -11.67092773 19.35355469 -11.70678711 18.37207031 C-11.73385742 17.1178125 -11.76092773 15.86355469 -11.78881836 14.57128906 C-11.82362305 13.32992188 -11.85842773 12.08855469 -11.89428711 10.80957031 C-11.58104024 7.01301826 -10.90889489 5.24411535 -8.60131836 2.25878906 C-5.19674922 -0.0109237 -3.99575167 0.00628485 0 0 Z M1.39868164 13.25878906 C1.39868164 15.89878906 1.39868164 18.53878906 1.39868164 21.25878906 C15.91868164 21.25878906 30.43868164 21.25878906 45.39868164 21.25878906 C45.39868164 18.61878906 45.39868164 15.97878906 45.39868164 13.25878906 C30.87868164 13.25878906 16.35868164 13.25878906 1.39868164 13.25878906 Z M-43.60131836 34.25878906 C-43.60131836 43.49878906 -43.60131836 52.73878906 -43.60131836 62.25878906 C-27.76131836 62.25878906 -11.92131836 62.25878906 4.39868164 62.25878906 C4.72868164 58.95878906 5.05868164 55.65878906 5.39868164 52.25878906 C7.39868164 50.25878906 7.39868164 50.25878906 10.93041992 50.03173828 C12.44331495 50.03205544 13.95623252 50.04338273 15.46899414 50.06347656 C16.26522186 50.06630646 17.06144958 50.06913635 17.88180542 50.072052 C20.42924927 50.08326267 22.97634375 50.10836844 25.52368164 50.13378906 C27.24893699 50.14381774 28.97419783 50.15294378 30.69946289 50.16113281 C34.93267078 50.18320484 39.16561694 50.2177404 43.39868164 50.25878906 C43.89368164 56.19878906 43.89368164 56.19878906 44.39868164 62.25878906 C60.23868164 62.25878906 76.07868164 62.25878906 92.39868164 62.25878906 C92.39868164 53.01878906 92.39868164 43.77878906 92.39868164 34.25878906 C47.51868164 34.25878906 2.63868164 34.25878906 -43.60131836 34.25878906 Z M17.39868164 62.25878906 C16.63729377 70.35849759 16.63729377 70.35849759 19.58618164 77.50878906 C22.65427837 79.41782703 23.88468346 80.06971172 27.39868164 79.25878906 C29.66355421 77.69315559 29.66355421 77.69315559 31.39868164 75.25878906 C31.88131954 71.98478428 31.88131954 71.98478428 31.64868164 68.50878906 C31.52493164 65.41503906 31.52493164 65.41503906 31.39868164 62.25878906 C26.77868164 62.25878906 22.15868164 62.25878906 17.39868164 62.25878906 Z M-37.60131836 74.25878906 C-37.60131836 90.42878906 -37.60131836 106.59878906 -37.60131836 123.25878906 C3.31868164 123.25878906 44.23868164 123.25878906 86.39868164 123.25878906 C86.39868164 107.08878906 86.39868164 90.91878906 86.39868164 74.25878906 C72.53868164 74.25878906 58.67868164 74.25878906 44.39868164 74.25878906 C43.40868164 77.22878906 42.41868164 80.19878906 41.39868164 83.25878906 C39.46118164 85.63378906 39.46118164 85.63378906 37.39868164 87.25878906 C36.71805664 87.81566406 36.03743164 88.37253906 35.33618164 88.94628906 C30.54835574 92.18965499 24.95002181 91.80482252 19.39868164 91.25878906 C14.08509158 89.64007951 10.33234245 87.03956964 7.39868164 82.25878906 C6.40868164 79.61878906 5.41868164 76.97878906 4.39868164 74.25878906 C-9.46131836 74.25878906 -23.32131836 74.25878906 -37.60131836 74.25878906 Z " fill="#E6B0D6" transform="translate(65.601318359375,13.7412109375)"/>
<path d="M0 0 C1.22493164 -0.04253906 1.22493164 -0.04253906 2.47460938 -0.0859375 C8.50008916 -0.10514222 13.286863 1.20349395 17.6875 5.5 C20.90253971 10.63156446 21.83452381 16.07073873 22.94921875 21.9296875 C23.14473831 22.92001984 23.34025787 23.91035217 23.54170227 24.93069458 C24.16098314 28.07725802 24.7681499 31.22601805 25.375 34.375 C25.79412307 36.51578155 26.21403632 38.65640855 26.63476562 40.796875 C27.66150142 46.02949495 28.67831588 51.26396827 29.6875 56.5 C30.36686615 56.50586624 31.0462323 56.51173248 31.7461853 56.51777649 C38.85237883 56.58198439 45.95813092 56.66647377 53.06396484 56.76245117 C55.71169189 56.79559222 58.35948774 56.8236574 61.00732422 56.84643555 C64.82549206 56.88018017 68.64303543 56.93250788 72.4609375 56.98828125 C74.22091568 56.99786613 74.22091568 56.99786613 76.01644897 57.00764465 C86.44915141 57.19195857 96.14635602 58.71663512 103.6875 66.5 C110.30669989 75.7582273 111.95241642 84.31313474 110.6875 95.5 C108.49494921 103.12968346 103.53922546 109.42871503 96.84486389 113.66644287 C89.88721714 117.13218312 83.33697524 117.01543404 75.68359375 116.890625 C74.36456558 116.88496521 73.04553741 116.87930542 71.6865387 116.87347412 C68.20930688 116.85832844 64.73276199 116.81914602 61.25579834 116.7746582 C57.69601733 116.73346341 54.13612343 116.71541191 50.57617188 116.6953125 C43.61300217 116.65263792 36.65028423 116.58452458 29.6875 116.5 C29.5487999 117.25375916 29.41009979 118.00751831 29.26719666 118.78411865 C28.62564576 122.26770387 27.98275111 125.75103988 27.33984375 129.234375 C27.12179077 130.41950684 26.90373779 131.60463867 26.67907715 132.82568359 C25.26511726 140.48016398 23.79316175 148.12051953 22.25 155.75 C22.06545258 156.67470093 21.88090515 157.59940186 21.69076538 158.55212402 C20.45896547 164.47482093 18.27165514 168.49756834 13.6875 172.5 C9.38784919 175.12474468 4.65835065 174.86698637 -0.25 174.875 C-1.03568359 174.89949219 -1.82136719 174.92398438 -2.63085938 174.94921875 C-7.96907726 174.97602152 -11.18384855 174.19372481 -15.3125 170.5 C-17.01631032 167.04030247 -17.55937268 164.26986284 -17.53955078 160.43432617 C-17.53939972 159.45368698 -17.53924866 158.47304779 -17.53909302 157.46269226 C-17.52877045 156.4166835 -17.51844788 155.37067474 -17.5078125 154.29296875 C-17.5049826 153.21243729 -17.50215271 152.13190582 -17.49923706 151.01863098 C-17.48806132 147.57480699 -17.46296118 144.13124511 -17.4375 140.6875 C-17.42746685 138.34961314 -17.41834158 136.01172219 -17.41015625 133.67382812 C-17.3881305 127.94912965 -17.35467868 122.22458355 -17.3125 116.5 C-40.11785906 115.28484163 -52.76365595 121.34891484 -71.3125 133.5 C-73.15381788 134.66322496 -75.00217532 135.81542857 -76.859375 136.953125 C-78.00164551 137.65743652 -78.00164551 137.65743652 -79.16699219 138.37597656 C-82.71954836 140.23714732 -85.28779676 140.56707839 -89.3125 140.5 C-92.92005484 139.2747927 -94.75470674 138.16935191 -97.1875 135.25 C-99.84252435 128.75994049 -97.78210299 123.08645805 -95.43359375 116.8984375 C-94.99721336 115.69920151 -94.99721336 115.69920151 -94.55201721 114.47573853 C-93.31548886 111.07770775 -92.05331428 107.68939923 -90.79125977 104.30078125 C-89.87020576 101.81609954 -88.96399874 99.32635546 -88.05859375 96.8359375 C-87.76907333 96.07437347 -87.47955292 95.31280945 -87.18125916 94.52816772 C-85.69741999 90.43708455 -84.85454714 87.75884606 -86.3125 83.5 C-86.713479 82.31937988 -87.11445801 81.13875977 -87.52758789 79.92236328 C-88.02726098 78.55396908 -88.52994622 77.18667216 -89.03515625 75.8203125 C-89.57922495 74.31917304 -90.12283043 72.81786563 -90.66601562 71.31640625 C-91.51923893 68.96899926 -92.37574595 66.62297866 -93.24047852 64.27978516 C-94.0779802 62.00516596 -94.90126158 59.72578927 -95.72265625 57.4453125 C-95.98200455 56.75341827 -96.24135284 56.06152405 -96.50856018 55.34866333 C-98.42688947 49.97427662 -99.4409121 45.11316486 -97.125 39.75 C-94.28254854 36.22143956 -91.87935008 34.75799539 -87.39453125 34.01953125 C-81.3809475 34.13653621 -76.27056211 38.04392959 -71.25 41 C-70.12384277 41.63768311 -68.99768555 42.27536621 -67.83740234 42.93237305 C-58.6772977 48.14356359 -58.6772977 48.14356359 -54.51171875 51.17578125 C-43.3690742 58.92041476 -30.43736921 57.70449915 -17.3125 57.5 C-17.32249275 56.61796402 -17.32249275 56.61796402 -17.33268738 55.71810913 C-17.39916884 49.58605427 -17.44435377 43.45410218 -17.47729492 37.32177734 C-17.49236116 35.03462565 -17.51281797 32.74750275 -17.53881836 30.46044922 C-17.57529606 27.16887293 -17.59224834 23.87767938 -17.60546875 20.5859375 C-17.62095261 19.56696381 -17.63643646 18.54799011 -17.65238953 17.49813843 C-17.65366935 12.0728728 -17.41929116 8.1648883 -14.3125 3.5 C-10.02861899 -0.25137632 -5.42094745 -0.01687454 0 0 Z M-4.3125 13.5 C-4.3125 28.02 -4.3125 42.54 -4.3125 57.5 C-1.0125 57.83 2.2875 58.16 5.6875 58.5 C8.6875 61.5 8.6875 61.5 9 64.5625 C8.6875 67.5 8.6875 67.5 6.6875 69.5 C4.52720642 69.8347168 4.52720642 69.8347168 1.80834961 69.94921875 C0.78728119 69.99366623 -0.23378723 70.03811371 -1.28579712 70.08390808 C-2.39933563 70.11809341 -3.51287415 70.15227875 -4.66015625 70.1875 C-5.81188324 70.22317581 -6.96361023 70.25885162 -8.15023804 70.29560852 C-11.89188835 70.39075921 -15.63244011 70.45313186 -19.375 70.5 C-21.2643779 70.52385269 -21.2643779 70.52385269 -23.19192505 70.54818726 C-42.10735828 70.66177661 -56.20013949 69.63809548 -71.20263672 57.22509766 C-76.69576711 52.5125007 -76.69576711 52.5125007 -83.3125 50.5 C-81.76543199 56.02847013 -80.00645929 61.41787018 -77.9453125 66.77734375 C-77.53539062 67.86853516 -77.12546875 68.95972656 -76.703125 70.08398438 C-75.85770331 72.32409093 -74.99034618 74.55603828 -74.1015625 76.77929688 C-71.14130202 84.82038903 -71.18448752 89.59204926 -74.3125 97.5 C-74.6832666 98.54551025 -75.0540332 99.59102051 -75.43603516 100.66821289 C-77.01838957 105.12455226 -78.68087023 109.54926715 -80.34765625 113.97460938 C-80.74339844 115.04646484 -81.13914062 116.11832031 -81.546875 117.22265625 C-81.91006836 118.18953369 -82.27326172 119.15641113 -82.64746094 120.15258789 C-83.59593625 122.4948621 -83.59593625 122.4948621 -82.3125 124.5 C-78.89711916 122.60038671 -75.48329584 120.69800559 -72.07080078 118.79321289 C-70.34877108 117.83273062 -68.62556956 116.87435026 -66.90234375 115.91601562 C-65.80019531 115.30048828 -64.69804687 114.68496094 -63.5625 114.05078125 C-62.55703125 113.49044189 -61.5515625 112.93010254 -60.515625 112.3527832 C-57.48976819 110.69900835 -57.48976819 110.69900835 -55.61608887 109.18278503 C-49.36114146 104.54263422 -43.41533977 104.85252253 -35.84375 105.01171875 C-33.92967346 105.02233086 -33.92967346 105.02233086 -31.97692871 105.03315735 C-28.60940653 105.05630436 -25.2436277 105.10109734 -21.87658691 105.15667725 C-18.43089743 105.2081313 -14.9850267 105.23072665 -11.5390625 105.25585938 C-4.79639934 105.31083742 1.94544984 105.39439805 8.6875 105.5 C8.6875 108.8 8.6875 112.1 8.6875 115.5 C4.3975 115.83 0.1075 116.16 -4.3125 116.5 C-4.3125 131.35 -4.3125 146.2 -4.3125 161.5 C4.90281817 162.62421512 4.90281817 162.62421512 7.66186523 159.69604492 C9.17631532 154.97677186 10.17567885 150.22982955 11.09765625 145.36328125 C11.31062851 144.28749313 11.52360077 143.21170502 11.74302673 142.10331726 C12.42115239 138.67476387 13.08678349 135.24396633 13.75 131.8125 C14.41747554 128.3704767 15.08779484 124.92914149 15.76768494 121.48954773 C16.1902998 119.35087863 16.60567976 117.21076493 17.01319885 115.06916809 C17.20357224 114.10444077 17.39394562 113.13971344 17.59008789 112.14575195 C17.75424698 111.29479446 17.91840607 110.44383698 18.08753967 109.5670929 C18.6875 107.5 18.6875 107.5 20.6875 105.5 C23.22793579 105.24171448 23.22793579 105.24171448 26.47900391 105.22875977 C27.69431793 105.21857315 28.90963196 105.20838654 30.16177368 105.19789124 C30.81346149 105.19695024 31.46514931 105.19600925 32.13658524 105.19503975 C34.18063878 105.19137654 36.22420682 105.17464814 38.26815796 105.15428162 C44.08020955 105.09889195 49.8923353 105.06831565 55.70458984 105.04370117 C59.26025627 105.02773577 62.8155845 104.99741388 66.37107468 104.95893669 C68.37383396 104.94175144 70.37671411 104.94123255 72.37954712 104.9410553 C80.59626493 104.852254 87.06946867 104.56746135 93.5625 99.0625 C97.41928703 94.41166858 98.14055108 90.99979283 98 85.03515625 C97.49253336 80.91833317 96.21125467 78.82072983 93.6875 75.5 C88.56209038 71.52519254 84.9002793 70.38053505 78.50366211 70.32641602 C76.59169289 70.30618126 76.59169289 70.30618126 74.64109802 70.28553772 C73.9605731 70.28047777 73.28004818 70.27541782 72.57890129 70.27020454 C70.44831108 70.25377879 68.31789617 70.23054298 66.18739319 70.20530701 C60.13079561 70.13455659 54.07412877 70.07429199 48.01733398 70.02319336 C44.31146115 69.9914518 40.60579401 69.95019604 36.90008736 69.90299797 C35.48669685 69.88695693 34.07325903 69.87464509 32.65980339 69.86609077 C30.68710841 69.8539748 28.71450659 69.82879649 26.74194336 69.80297852 C25.61848007 69.79267105 24.49501678 69.78236359 23.33750916 69.77174377 C20.6875 69.5 20.6875 69.5 18.6875 67.5 C18.03611755 65.25413513 18.03611755 65.25413513 17.46655273 62.42358398 C17.24970322 61.36586288 17.0328537 60.30814178 16.80943298 59.21836853 C16.58228104 58.07251785 16.35512909 56.92666718 16.12109375 55.74609375 C15.88213882 54.57490494 15.6431839 53.40371613 15.39698792 52.19703674 C14.63247294 48.44527431 13.878115 44.69156607 13.125 40.9375 C12.36701164 37.18014956 11.60686048 33.42327044 10.84230042 29.66725159 C10.36625961 27.32656905 9.89428094 24.98505623 9.42662048 22.64268494 C9.21292313 21.588116 8.99922577 20.53354706 8.77905273 19.44702148 C8.59189194 18.5137352 8.40473114 17.58044891 8.2118988 16.61888123 C7.8881212 14.52844707 7.8881212 14.52844707 6.6875 13.5 C3.0575 13.5 -0.5725 13.5 -4.3125 13.5 Z " fill="#A162F5" transform="translate(391.3125,323.5)"/>
<path d="M0 0 C0.9796875 0.01732178 1.959375 0.03464355 2.96875 0.05249023 C20.62325712 0.61933838 37.29322438 6.17376957 50.15234375 18.7109375 C62.09317394 32.14207162 68.4904555 48.44554219 67.6875 66.5625 C66.47187176 83.94979589 58.59949481 98.99476767 45.6875 110.5625 C30.42897445 122.41081067 14.54163781 124.84785028 -4.11506271 124.86746025 C-6.95051273 124.87116173 -9.78562461 124.88799033 -12.6210022 124.90821838 C-20.67598146 124.96327115 -28.73100878 124.99425382 -36.78613281 125.01879883 C-41.732053 125.03476942 -46.67773023 125.06508199 -51.62352371 125.10356331 C-53.49477159 125.11512447 -55.36606306 125.12114287 -57.23734665 125.12124443 C-75.30138442 125.12258058 -90.54703229 127.39373617 -104.24609375 140.30859375 C-114.62962577 151.63429881 -118.75599122 165.49648018 -118.19921875 180.64453125 C-116.89973012 193.34194428 -110.71734681 205.76408811 -101.27734375 214.375 C-97.78514601 216.95158858 -94.22596348 219.07150092 -90.375 221.0625 C-89.74335938 221.38927734 -89.11171875 221.71605469 -88.4609375 222.05273438 C-75.72459593 228.11089279 -61.20823867 226.9416222 -47.45166016 227.09423828 C-44.69676267 227.12788661 -41.94221804 227.17295997 -39.1875 227.21875 C-38.3406665 227.2240271 -37.49383301 227.2293042 -36.62133789 227.23474121 C-30.65113056 227.33674629 -30.65113056 227.33674629 -27.3125 229.5625 C-26.69599515 235.11104369 -26.69599515 235.11104369 -27.3125 237.5625 C-29.89145856 240.34549682 -31.44323548 240.57530299 -35.27636719 240.95068359 C-36.88725159 240.97049526 -38.49841231 240.97278137 -40.109375 240.9609375 C-41.40902191 240.96524277 -41.40902191 240.96524277 -42.73492432 240.96963501 C-44.5741033 240.9716763 -46.41330396 240.9661419 -48.25244141 240.95361328 C-51.01126502 240.93779379 -53.76857048 240.95333642 -56.52734375 240.97265625 C-70.06204328 240.9906671 -84.36296756 240.64369335 -96.5625 234.0625 C-97.54162354 233.55299805 -97.54162354 233.55299805 -98.54052734 233.03320312 C-113.97720853 224.56999458 -124.99243519 209.99312404 -130.125 193.25 C-134.78564623 173.96935044 -131.36979804 156.08872829 -121.15234375 139.34765625 C-111.73104835 125.08569528 -96.86801159 115.93958986 -80.32693481 112.21052551 C-73.29291212 110.92399657 -66.10236038 111.13949366 -58.97698593 111.15180969 C-56.11628301 111.15635065 -53.25617846 111.14211465 -50.39553833 111.12341309 C-43.29822691 111.08074703 -36.20093273 111.0694104 -29.10351562 111.05718994 C-23.08286785 111.0456081 -17.06249731 111.02190884 -11.04196548 110.98249817 C-8.24195479 110.96904908 -5.44233308 110.97307488 -2.64230347 110.97790527 C14.14451845 110.92670084 27.8745524 107.91745031 40.4296875 96.01171875 C49.00938734 86.70467411 53.79060807 74.19323903 53.6875 61.5625 C53.06513405 48.60746134 47.87250332 36.81568132 38.84375 27.45703125 C29.74465935 19.46235921 17.59175465 14.64675847 5.4921875 14.31640625 C4.52925781 14.28353516 3.56632813 14.25066406 2.57421875 14.21679688 C0.5587157 14.15536455 -1.45691864 14.09810414 -3.47265625 14.04492188 C-4.43300781 14.01076172 -5.39335937 13.97660156 -6.3828125 13.94140625 C-7.25695801 13.9163501 -8.13110352 13.89129395 -9.03173828 13.86547852 C-11.3125 13.5625 -11.3125 13.5625 -14.3125 11.5625 C-15.3125 8.75 -15.3125 8.75 -15.3125 5.5625 C-11.13085775 -0.44145793 -6.72942943 -0.19222023 0 0 Z " fill="#AC6FEF" transform="translate(228.3125,180.4375)"/>
<path d="M0 0 C6.38785246 5.66626172 10.62990358 12.85336955 11.4453125 21.38671875 C11.56462354 32.79285372 9.91634542 40.71107696 1.96875 49.1171875 C-6.25156609 56.87122515 -14.4093148 58.62889424 -25.55078125 58.3046875 C-34.01865591 57.71080772 -40.53992454 53.65238174 -46.390625 47.68359375 C-52.32529314 40.28998636 -54.64822389 32.28613705 -54.26953125 22.85546875 C-52.98474866 12.73615022 -48.58130127 5.46662189 -40.71875 -0.8828125 C-27.97455205 -10.00150586 -12.67285928 -9.01031307 0 0 Z M-34.640625 11.05859375 C-38.72174089 16.15998862 -41.67722384 21.15608062 -41.26953125 27.86328125 C-40.09684077 34.07733181 -36.81515719 38.81232499 -31.875 42.67578125 C-27.09473786 45.55523049 -22.15598939 46.39077902 -16.703125 45.24609375 C-10.17593818 43.19580445 -6.29166593 39.79142426 -2.890625 33.87109375 C-0.98114224 28.14264546 -0.97876785 22.0954687 -3.515625 16.55859375 C-6.29979078 11.70591044 -9.72107887 8.82027018 -14.890625 6.55859375 C-22.42323015 4.83237174 -28.61942765 6.26900495 -34.640625 11.05859375 Z " fill="#C78EE4" transform="translate(123.890625,165.12890625)"/>
<path d="M0 0 C1.2694043 -0.03673828 1.2694043 -0.03673828 2.56445312 -0.07421875 C6.70067517 -0.09365284 9.01887894 0.06005581 12.6640625 2.171875 C14.5625 4.375 14.5625 4.375 14.5 8 C13.5625 11.375 13.5625 11.375 11.5625 13.375 C7.7700729 13.85597498 3.94446721 13.74538433 0.125 13.75 C-0.93783203 13.77449219 -2.00066406 13.79898438 -3.09570312 13.82421875 C-4.11470703 13.82808594 -5.13371094 13.83195313 -6.18359375 13.8359375 C-7.11872803 13.84415527 -8.0538623 13.85237305 -9.01733398 13.86083984 C-11.4375 13.375 -11.4375 13.375 -13.26977539 11.57275391 C-15.05154996 8.21930739 -14.43016595 5.94859741 -13.4375 2.375 C-9.25603408 -0.41188156 -4.84869249 0.00735207 0 0 Z " fill="#C88FE4" transform="translate(156.4375,180.625)"/>
<path d="M0 0 C2.58861097 2.13560405 3.71069819 3.63614862 4.41015625 6.93359375 C4.69743765 10.83030806 4.22061268 12.65840618 2.0625 16 C-2.01080308 18.6601163 -5.25519889 18.98443537 -10 18 C-12.50160818 16.12379387 -13.61945652 14.76108697 -15 12 C-15.1386653 8.87701631 -14.85372812 6.00939163 -14 3 C-9.76759919 -1.3356301 -5.56617524 -2.01329743 0 0 Z M-7 7 C-7.33 7.66 -7.66 8.32 -8 9 C-7.67 9.66 -7.34 10.32 -7 11 C-5.68 10.67 -4.36 10.34 -3 10 C-3.33 9.01 -3.66 8.02 -4 7 C-4.99 7 -5.98 7 -7 7 Z " fill="#C78FE4" transform="translate(108,182)"/>
<path d="M0 0 C1.15822266 -0.01740234 1.15822266 -0.01740234 2.33984375 -0.03515625 C7.99957188 -0.00572959 7.99957188 -0.00572959 10.21679688 1.68115234 C12.36699261 4.51944344 11.92669511 6.96143914 11.5 10.375 C9.06533869 13.0232281 7.57578414 13.36644913 3.96875 13.7734375 C2.00421875 13.76183594 2.00421875 13.76183594 0 13.75 C-1.3096875 13.75773437 -2.619375 13.76546875 -3.96875 13.7734375 C-7.57578414 13.36644913 -9.06533869 13.0232281 -11.5 10.375 C-12.25107173 4.36642612 -12.25107173 4.36642612 -10.21679688 1.68115234 C-7.23073184 -0.59066904 -3.59863076 -0.05406958 0 0 Z " fill="#A162F5" transform="translate(283.5,407.625)"/>
<path d="M0 0 C1.2365332 -0.03673828 1.2365332 -0.03673828 2.49804688 -0.07421875 C8.52167575 -0.10357844 8.52167575 -0.10357844 11.1328125 2.20703125 C12.47299545 5.3322478 12.08557701 7.16935871 11.0625 10.375 C8.65105799 12.83281589 7.2343404 13.35226545 3.78515625 13.80859375 C1.97337891 13.81052734 1.97337891 13.81052734 0.125 13.8125 C-1.08027344 13.83183594 -2.28554687 13.85117187 -3.52734375 13.87109375 C-7.51480499 13.29101634 -9.20219074 12.30271695 -11.9375 9.375 C-11.77587396 0.00068943 -7.95514528 0.01238155 0 0 Z " fill="#A162F5" transform="translate(253.9375,407.625)"/>
<path d="M0 0 C1.96453125 0.00193359 1.96453125 0.00193359 3.96875 0.00390625 C7.55902528 0.44474757 9.07060812 0.80109227 11.5 3.4375 C12.25107173 9.44607388 12.25107173 9.44607388 10.21679688 12.13134766 C7.23073184 14.40316904 3.59863076 13.86656958 0 13.8125 C-1.15822266 13.82990234 -1.15822266 13.82990234 -2.33984375 13.84765625 C-8.01277618 13.81816093 -8.01277618 13.81816093 -10.21679688 12.09619141 C-11.5 10.4375 -11.5 10.4375 -11.9375 7.5 C-10.93207825 0.46204776 -6.35323133 -0.09379771 0 0 Z " fill="#C78FE4" transform="translate(190.5,180.5625)"/>
<path d="M0 0 C0.72445312 -0.02449219 1.44890625 -0.04898437 2.1953125 -0.07421875 C7.476662 -0.10345131 7.476662 -0.10345131 10.00390625 2.20703125 C11.43864623 5.32970062 11.03232058 7.14039551 10 10.375 C6.75989139 13.60746684 4.04258809 13.83356566 -0.4375 13.875 C-4.8187971 13.76657645 -6.60431132 13.62413732 -10.375 11.25 C-12 8.375 -12 8.375 -12 5.1875 C-9.93699535 -0.61470059 -5.30802666 0.00944489 0 0 Z " fill="#A063F5" transform="translate(225,407.625)"/>
<path d="M0 0 C2.375 1.0625 2.375 1.0625 4 3 C5.207644 7.07579849 5.44610971 9.08838451 3.5625 12.9375 C0.47628163 15.42152942 -1.22278458 15.68849662 -5.09375 15.4140625 C-7 15 -7 15 -9.5 13.4375 C-11.58392818 10.05111671 -11.55802097 7.90614682 -11 4 C-8.09912777 -0.52536068 -5.13093735 -0.64136717 0 0 Z " fill="#A162F5" transform="translate(455,402)"/>
<path d="M0 0 C2.4375 1.5625 2.4375 1.5625 4 4 C4.55802097 7.90614682 4.58392818 10.05111671 2.5 13.4375 C-0.53037069 15.33148168 -2.55830934 15.64334247 -6.08984375 15.4453125 C-8 15 -8 15 -10.5625 12.9375 C-12.44610971 9.08838451 -12.207644 7.07579849 -11 3 C-7.92160879 -0.67038952 -4.56677188 -0.57084649 0 0 Z " fill="#A162F5" transform="translate(400,402)"/>
<path d="M0 0 C2.5625 2.0625 2.5625 2.0625 4 5 C3.94021398 8.46758942 3.60965977 10.88826749 1.9375 13.9375 C-1.27905997 15.70141999 -4.49385409 15.73924763 -8 15 C-10.5625 12.9375 -10.5625 12.9375 -12 10 C-11.94021398 6.53241058 -11.60965977 4.11173251 -9.9375 1.0625 C-6.72094003 -0.70141999 -3.50614591 -0.73924763 0 0 Z " fill="#A063F5" transform="translate(428,402)"/>
<path d="M0 0 C2.4375 1.5625 2.4375 1.5625 4 4 C4.4495791 7.59663278 4.36454848 10.05217395 3.0625 13.4375 C0.15174319 15.6426188 -2.27305769 15.4395449 -5.84375 15.43359375 C-8.51233306 14.8969765 -9.41081088 14.191985 -11 12 C-11.75471698 5.20754717 -11.75471698 5.20754717 -9.4375 1.5 C-6.05111671 -0.58392818 -3.90614682 -0.55802097 0 0 Z " fill="#A062F5" transform="translate(372,402)"/>
</svg>
